<svg xmlns="http://www.w3.org/2000/svg" xmlns:xlink="http://www.w3.org/1999/xlink" width="500" zoomAndPan="magnify" viewBox="0 0 375 374.999991" height="500" preserveAspectRatio="xMidYMid meet" version="1.0"><defs><clipPath id="3a89691434"><path d="M 5.375 6 L 369.875 6 L 369.875 369.875 L 5.375 369.875 Z M 5.375 6 " clip-rule="nonzero"/></clipPath></defs><g clip-path="url(#3a89691434)"><path fill="#6366f1" d="M 341.554688 120.316406 L 255.140625 120.316406 L 255.140625 33.902344 C 255.140625 18.570312 242.597656 6.027344 227.265625 6.027344 L 147.726562 6.027344 C 132.394531 6.027344 119.851562 18.570312 119.851562 33.902344 L 119.851562 114.183594 C 119.851562 126.632812 124.683594 138.25 133.511719 147.078125 L 228.378906 241.945312 C 233.675781 247.242188 236.558594 254.210938 236.558594 261.644531 L 236.558594 341.925781 C 236.558594 347.039062 232.375 351.21875 227.265625 351.21875 L 147.726562 351.21875 C 142.617188 351.21875 138.433594 347.039062 138.433594 341.925781 L 138.433594 246.222656 C 138.433594 241.109375 134.253906 236.929688 129.144531 236.929688 L 33.4375 236.929688 C 28.328125 236.929688 24.144531 232.746094 24.144531 227.636719 L 24.144531 148.191406 C 24.144531 143.082031 28.328125 138.898438 33.4375 138.898438 L 59.734375 138.898438 C 62.707031 143.359375 67.816406 146.242188 73.578125 146.242188 C 82.777344 146.242188 90.304688 138.714844 90.304688 129.515625 C 90.304688 120.316406 82.777344 112.789062 73.578125 112.789062 C 67.722656 112.789062 62.707031 115.761719 59.640625 120.222656 L 33.4375 120.222656 C 18.105469 120.222656 5.5625 132.765625 5.5625 148.097656 L 5.5625 227.542969 C 5.5625 242.875 18.105469 255.421875 33.4375 255.421875 L 119.851562 255.421875 L 119.851562 341.835938 C 119.851562 357.167969 132.394531 369.710938 147.726562 369.710938 L 227.265625 369.710938 C 242.597656 369.710938 255.140625 357.167969 255.140625 341.835938 L 255.140625 261.554688 C 255.140625 249.101562 250.308594 237.488281 241.480469 228.660156 L 146.613281 133.976562 C 141.316406 128.679688 138.433594 121.710938 138.433594 114.277344 L 138.433594 33.996094 C 138.433594 28.882812 142.617188 24.703125 147.726562 24.703125 L 227.265625 24.703125 C 232.375 24.703125 236.558594 28.882812 236.558594 33.996094 L 236.558594 129.699219 C 236.558594 134.8125 240.738281 138.992188 245.847656 138.992188 L 341.554688 138.992188 C 346.667969 138.992188 350.847656 143.175781 350.847656 148.285156 L 350.847656 227.730469 C 350.847656 232.839844 346.667969 237.023438 341.554688 237.023438 L 315.445312 237.023438 C 312.472656 232.5625 307.363281 229.589844 301.601562 229.589844 C 292.402344 229.589844 284.875 237.113281 284.875 246.3125 C 284.875 255.511719 292.402344 263.039062 301.601562 263.039062 C 307.363281 263.039062 312.472656 260.066406 315.445312 255.605469 L 341.464844 255.605469 C 356.792969 255.605469 369.339844 243.0625 369.339844 227.730469 L 369.339844 148.285156 C 369.433594 132.859375 356.886719 120.316406 341.554688 120.316406 Z M 341.554688 120.316406 " fill-opacity="1" fill-rule="nonzero"/></g></svg>